<?xml version="1.0" encoding="UTF-8" standalone="no"?>
<!DOCTYPE svg PUBLIC "-//W3C//DTD SVG 1.1//EN" "http://www.w3.org/Graphics/SVG/1.1/DTD/svg11.dtd">
<svg width="100%" height="100%" viewBox="0 0 591 591" version="1.1" xmlns="http://www.w3.org/2000/svg" xmlns:xlink="http://www.w3.org/1999/xlink" xml:space="preserve" xmlns:serif="http://www.serif.com/" style="fill-rule:evenodd;clip-rule:evenodd;stroke-linecap:round;stroke-linejoin:round;stroke-miterlimit:1.5;">
    <g transform="matrix(0.869874,0,0,0.869874,-14.4874,-29.854)">
        <g id="Layer1">
            <circle cx="356.019" cy="386.79" r="190.969" style="fill:none;stroke:black;stroke-width:38.32px;"/>
        </g>
    </g>
    <g id="Layer2" transform="matrix(1,0,0,1,-12,0)">
        <g transform="matrix(1,0,0,1,-2,0)">
            <path d="M269.267,490.745C270.582,493.042 289.369,496.721 307.319,497.16C324.587,497.582 346.264,492.398 347.716,489.646C348.84,487.519 348.991,494.35 348.991,496.898C348.991,508.494 339.664,517.909 328.175,517.909C326.435,517.909 324.744,517.693 323.128,517.286C326.757,521.068 328.991,526.222 328.991,531.898C328.991,543.494 319.664,552.909 308.175,552.909C296.687,552.909 287.359,543.494 287.359,531.898C287.359,526.358 289.488,521.316 292.964,517.561C291.735,517.789 290.469,517.909 289.175,517.909C277.687,517.909 268.359,508.494 268.359,496.898C268.359,494.757 268.257,488.98 269.267,490.745ZM308.675,504.261C307.707,506.871 306.238,509.235 304.387,511.235C305.616,511.006 306.882,510.887 308.175,510.887C309.916,510.887 311.607,511.103 313.223,511.51C311.25,509.453 309.689,506.991 308.675,504.261Z"/>
        </g>
        <g transform="matrix(1.52756,0,0,1.52756,-1.52448,-653.497)">
            <path d="M295.674,523.361C303.355,523.361 309.59,529.597 309.59,537.277C309.59,544.958 305.065,550.717 297.504,550.616C297.272,550.612 291.782,543.938 291.368,543.377C291.038,542.931 282.923,536.008 282.934,535.367C283.058,527.891 287.994,523.361 295.674,523.361Z"/>
        </g>
        <g transform="matrix(-1.52756,0,0,1.52756,614.591,-653.008)">
            <path d="M295.674,523.361C303.355,523.361 309.59,529.597 309.59,537.277C309.59,544.958 305.065,550.717 297.504,550.616C297.272,550.612 291.782,543.938 291.368,543.377C291.038,542.931 282.923,536.008 282.934,535.367C283.058,527.891 287.994,523.361 295.674,523.361Z"/>
        </g>
        <g transform="matrix(1.52756,0,0,-1.52756,-1.52448,1268.56)">
            <path d="M295.674,523.361C303.355,523.361 309.59,529.597 309.59,537.277C309.59,544.958 305.065,550.717 297.504,550.616C297.272,550.612 291.782,543.938 291.368,543.377C291.038,542.931 282.923,536.008 282.934,535.367C283.058,527.891 287.994,523.361 295.674,523.361Z"/>
        </g>
        <g transform="matrix(-1.52756,0,0,-1.52756,614.591,1268.07)">
            <path d="M295.674,523.361C303.355,523.361 309.59,529.597 309.59,537.277C309.59,544.958 305.065,550.717 297.504,550.616C297.272,550.612 291.782,543.938 291.368,543.377C291.038,542.931 282.923,536.008 282.934,535.367C283.058,527.891 287.994,523.361 295.674,523.361Z"/>
        </g>
        <g transform="matrix(1,0,0,-1,-2,612.151)">
            <path d="M269.267,490.745C270.582,493.042 289.369,496.721 307.319,497.16C324.587,497.582 346.264,492.398 347.716,489.646C348.84,487.519 348.991,494.35 348.991,496.898C348.991,508.494 339.664,517.909 328.175,517.909C326.435,517.909 324.744,517.693 323.128,517.286C326.757,521.068 328.991,526.222 328.991,531.898C328.991,543.494 319.664,552.909 308.175,552.909C296.687,552.909 287.359,543.494 287.359,531.898C287.359,526.358 289.488,521.316 292.964,517.561C291.735,517.789 290.469,517.909 289.175,517.909C277.687,517.909 268.359,508.494 268.359,496.898C268.359,494.757 268.257,488.98 269.267,490.745ZM308.675,504.261C307.707,506.871 306.238,509.235 304.387,511.235C305.616,511.006 306.882,510.887 308.175,510.887C309.916,510.887 311.607,511.103 313.223,511.51C311.25,509.453 309.689,506.991 308.675,504.261Z"/>
        </g>
        <g transform="matrix(6.12323e-17,1,-1,6.12323e-17,612.749,-2.59866)">
            <path d="M269.267,490.745C270.582,493.042 289.369,496.721 307.319,497.16C324.587,497.582 346.264,492.398 347.716,489.646C348.84,487.519 348.991,494.35 348.991,496.898C348.991,508.494 339.664,517.909 328.175,517.909C326.435,517.909 324.744,517.693 323.128,517.286C326.757,521.068 328.991,526.222 328.991,531.898C328.991,543.494 319.664,552.909 308.175,552.909C296.687,552.909 287.359,543.494 287.359,531.898C287.359,526.358 289.488,521.316 292.964,517.561C291.735,517.789 290.469,517.909 289.175,517.909C277.687,517.909 268.359,508.494 268.359,496.898C268.359,494.757 268.257,488.98 269.267,490.745ZM308.675,504.261C307.707,506.871 306.238,509.235 304.387,511.235C305.616,511.006 306.882,510.887 308.175,510.887C309.916,510.887 311.607,511.103 313.223,511.51C311.25,509.453 309.689,506.991 308.675,504.261Z"/>
        </g>
        <g transform="matrix(6.12323e-17,1,1,-6.12323e-17,0.598657,-2.59866)">
            <path d="M269.267,490.745C270.582,493.042 289.369,496.721 307.319,497.16C324.587,497.582 346.264,492.398 347.716,489.646C348.84,487.519 348.991,494.35 348.991,496.898C348.991,508.494 339.664,517.909 328.175,517.909C326.435,517.909 324.744,517.693 323.128,517.286C326.757,521.068 328.991,526.222 328.991,531.898C328.991,543.494 319.664,552.909 308.175,552.909C296.687,552.909 287.359,543.494 287.359,531.898C287.359,526.358 289.488,521.316 292.964,517.561C291.735,517.789 290.469,517.909 289.175,517.909C277.687,517.909 268.359,508.494 268.359,496.898C268.359,494.757 268.257,488.98 269.267,490.745ZM308.675,504.261C307.707,506.871 306.238,509.235 304.387,511.235C305.616,511.006 306.882,510.887 308.175,510.887C309.916,510.887 311.607,511.103 313.223,511.51C311.25,509.453 309.689,506.991 308.675,504.261Z"/>
        </g>
    </g>
    <path d="M151.008,306.566L233.189,307.662" style="fill:none;stroke:black;stroke-width:33.33px;stroke-linecap:butt;"/>
    <g transform="matrix(1,0,0,1,207,0)">
        <path d="M151.008,306.566L233.189,307.662" style="fill:none;stroke:black;stroke-width:33.33px;stroke-linecap:butt;"/>
    </g>
    <g transform="matrix(6.12323e-17,1,-1,6.12323e-17,602.713,11.515)">
        <path d="M151.008,306.566L233.189,307.662" style="fill:none;stroke:black;stroke-width:33.33px;stroke-linecap:butt;"/>
    </g>
    <g transform="matrix(6.12323e-17,1,-1,6.12323e-17,602.713,218.515)">
        <path d="M151.008,306.566L233.189,307.662" style="fill:none;stroke:black;stroke-width:33.33px;stroke-linecap:butt;"/>
    </g>
    <g transform="matrix(-0.707107,0.707107,-0.707107,-0.707107,721.781,315.256)">
        <path d="M151.008,306.566L233.189,307.662" style="fill:none;stroke:black;stroke-width:33.33px;stroke-linecap:butt;"/>
    </g>
    <g transform="matrix(-0.707107,0.707107,-0.707107,-0.707107,575.41,461.627)">
        <path d="M151.008,306.566L233.189,307.662" style="fill:none;stroke:black;stroke-width:33.33px;stroke-linecap:butt;"/>
    </g>
    <g transform="matrix(0.707107,0.707107,-0.707107,0.707107,303.741,-119.068)">
        <path d="M151.008,306.566L233.189,307.662" style="fill:none;stroke:black;stroke-width:33.33px;stroke-linecap:butt;"/>
    </g>
    <g transform="matrix(0.707107,0.707107,-0.707107,0.707107,450.112,27.3027)">
        <path d="M151.008,306.566L233.189,307.662" style="fill:none;stroke:black;stroke-width:33.33px;stroke-linecap:butt;"/>
    </g>
</svg>
